<svg width="512" height="512" viewBox="0 0 512 512" fill="none" xmlns="http://www.w3.org/2000/svg">
  <!-- Background with gradient -->
  <defs>
    <linearGradient id="bg" x1="0%" y1="0%" x2="100%" y2="100%">
      <stop offset="0%" stop-color="#1A237E"/>
      <stop offset="100%" stop-color="#0D47A1"/>
    </linearGradient>
    <linearGradient id="accent" x1="0%" y1="0%" x2="100%" y2="100%">
      <stop offset="0%" stop-color="#008080"/>
      <stop offset="100%" stop-color="#00ACC1"/>
    </linearGradient>
  </defs>
  
  <!-- Background Circle -->
  <circle cx="256" cy="256" r="240" fill="url(#bg)" stroke="url(#accent)" stroke-width="16"/>
  
  <!-- Main Inventory Grid -->
  <rect x="140" y="180" width="60" height="60" fill="white" rx="8"/>
  <rect x="220" y="180" width="60" height="60" fill="white" rx="8"/>
  <rect x="300" y="180" width="60" height="60" fill="white" rx="8"/>
  
  <!-- Secondary Stack -->
  <rect x="170" y="260" width="50" height="50" fill="url(#accent)" rx="6"/>
  <rect x="235" y="260" width="50" height="50" fill="url(#accent)" rx="6"/>
  <rect x="300" y="260" width="50" height="50" fill="url(#accent)" rx="6"/>
  
  <!-- Data Flow Lines -->
  <path d="M120 320 L180 320 M180 320 L180 300 M180 320 L240 320 M240 320 L240 340 L320 340 L320 320 L340 320" 
        stroke="white" stroke-width="8" fill="none" stroke-linecap="round"/>
  
  <!-- Inventory Dots -->
  <circle cx="120" cy="120" r="24" fill="url(#accent)"/>
  <circle cx="256" cy="80" r="24" fill="url(#accent)"/>
  <circle cx="392" cy="120" r="24" fill="url(#accent)"/>
  
  <!-- App name -->
  <text x="256" y="450" font-family="Arial, sans-serif" font-size="40" font-weight="bold" text-anchor="middle" fill="white">PrepCorex</text>
</svg>
